STARTFONT 2.1
FONT lucm.ipa.9
SIZE 15 72 72
FONTBOUNDINGBOX 13 15 0 -2
STARTPROPERTIES 4
FONT_DESCENT 2
FONT_ASCENT 13
DEFAULT_CHAR 0
COPYRIGHT "Copyright (C) 1985 Bigelow & Holmes Inc. All rights reserved."
ENDPROPERTIES
CHARS 146
STARTCHAR ch-0
ENCODING 0
SWIDTH 600 0
DWIDTH 9 0
BBX 9 15 0 -2
BITMAP
0000
0000
0000
0000
0000
ee00
7300
6300
6300
7e00
6000
6000
3e00
0000
0000
ENDCHAR
STARTCHAR ch-1
ENCODING 1
SWIDTH 600 0
DWIDTH 9 0
BBX 9 15 0 -2
BITMAP
0000
0000
0000
0000
0000
7600
ce00
c600
c600
c600
c600
ce00
7700
0000
0000
ENDCHAR
STARTCHAR ch-2
ENCODING 2
SWIDTH 600 0
DWIDTH 9 0
BBX 9 15 0 -2
BITMAP
0000
0000
0000
0000
0000
ee00
7300
6300
6300
6300
6300
7300
6e00
0000
0000
ENDCHAR
STARTCHAR ch-3
ENCODING 3
SWIDTH 600 0
DWIDTH 9 0
BBX 9 15 0 -2
BITMAP
0000
0000
3800
6800
6000
6c00
7600
6300
6300
6300
6300
6600
7c00
0000
0000
ENDCHAR
STARTCHAR ch-4
ENCODING 4
SWIDTH 600 0
DWIDTH 9 0
BBX 9 15 0 -2
BITMAP
0000
0000
0000
0000
0000
3c00
4600
0300
0300
0300
0300
4600
3c00
0000
0000
ENDCHAR
STARTCHAR ch-5
ENCODING 5
SWIDTH 600 0
DWIDTH 9 0
BBX 9 15 0 -2
BITMAP
0000
0000
0000
0000
0000
1e00
3100
6000
6000
6000
6e00
3b00
1e00
3000
0000
ENDCHAR
STARTCHAR ch-6
ENCODING 6
SWIDTH 666 0
DWIDTH 10 0
BBX 10 15 0 -2
BITMAP
0000
0000
0600
0600
0600
3e00
6600
c600
c600
c600
c600
6e00
3680
0380
0000
ENDCHAR
STARTCHAR ch-7
ENCODING 7
SWIDTH 666 0
DWIDTH 10 0
BBX 10 15 0 -2
BITMAP
0000
0000
0380
0680
0600
3e00
6600
c600
c600
c600
c600
6e00
3600
0000
0000
ENDCHAR
STARTCHAR ch-8
ENCODING 8
SWIDTH 600 0
DWIDTH 9 0
BBX 9 15 0 -2
BITMAP
0000
0000
0000
0000
0000
3c00
6600
6300
7f00
0300
0300
4600
3c00
0000
0000
ENDCHAR
STARTCHAR ch-9
ENCODING 9
SWIDTH 600 0
DWIDTH 9 0
BBX 9 15 0 -2
BITMAP
0000
0000
0000
0000
0000
3c00
4600
0300
0300
7f00
6300
6600
3c00
0000
0000
ENDCHAR
STARTCHAR ch-10
ENCODING 10
SWIDTH 666 0
DWIDTH 10 0
BBX 10 15 0 -2
BITMAP
0000
0000
0000
0000
0000
7800
8d00
0700
1e80
7600
c600
cc00
7800
0000
0000
ENDCHAR
STARTCHAR ch-11
ENCODING 11
SWIDTH 600 0
DWIDTH 9 0
BBX 9 15 0 -2
BITMAP
0000
0000
0000
0000
0000
3e00
6000
6000
3c00
6000
6000
6000
3e00
0000
0000
ENDCHAR
STARTCHAR ch-12
ENCODING 12
SWIDTH 600 0
DWIDTH 9 0
BBX 9 15 0 -2
BITMAP
0000
0000
0000
0000
0000
7c00
0600
0600
0600
7c00
0600
0600
7c00
0000
0000
ENDCHAR
STARTCHAR ch-13
ENCODING 13
SWIDTH 600 0
DWIDTH 9 0
BBX 9 15 0 -2
BITMAP
0000
0000
0000
0000
0000
fa00
0e00
0d00
0c00
f800
0c00
0c00
f800
0000
0000
ENDCHAR
STARTCHAR ch-14
ENCODING 14
SWIDTH 600 0
DWIDTH 9 0
BBX 9 15 0 -2
BITMAP
0000
0000
0000
0000
0000
3e00
6300
4300
4300
5e00
4300
6300
3e00
0000
0000
ENDCHAR
STARTCHAR ch-15
ENCODING 15
SWIDTH 600 0
DWIDTH 9 0
BBX 9 15 0 -2
BITMAP
0000
0000
0000
0000
0000
3e00
0600
0600
0600
1f00
0600
0600
0600
0600
7c00
ENDCHAR
STARTCHAR ch-16
ENCODING 16
SWIDTH 666 0
DWIDTH 10 0
BBX 10 15 0 -2
BITMAP
0000
0000
0000
0180
0380
3a00
6e00
c600
c600
c600
6e00
3e00
0600
cc00
7800
ENDCHAR
STARTCHAR ch-17
ENCODING 17
SWIDTH 600 0
DWIDTH 9 0
BBX 9 15 0 -2
BITMAP
0000
0000
0000
0000
0000
1d00
3700
6300
6300
6300
3700
1b00
0300
6600
3c00
ENDCHAR
STARTCHAR ch-18
ENCODING 18
SWIDTH 600 0
DWIDTH 9 0
BBX 9 15 0 -2
BITMAP
0000
0000
0000
0000
0000
1e00
3300
6000
6000
6300
6300
3300
1f00
0000
0000
ENDCHAR
STARTCHAR ch-19
ENCODING 19
SWIDTH 600 0
DWIDTH 9 0
BBX 9 15 0 -2
BITMAP
0000
0000
0000
0000
0000
6300
6300
6200
3600
3400
1c00
1c00
3600
3600
1c00
ENDCHAR
STARTCHAR ch-20
ENCODING 20
SWIDTH 600 0
DWIDTH 9 0
BBX 9 15 0 -2
BITMAP
0000
0000
0000
0000
0000
6300
3200
3600
1c00
1c00
3600
3600
1c00
0000
0000
ENDCHAR
STARTCHAR ch-21
ENCODING 21
SWIDTH 600 0
DWIDTH 9 0
BBX 9 15 0 -2
BITMAP
0000
0000
6300
6300
6300
6300
6300
6300
7700
3b00
0300
0300
0300
0000
0000
ENDCHAR
STARTCHAR ch-22
ENCODING 22
SWIDTH 600 0
DWIDTH 9 0
BBX 9 15 0 -2
BITMAP
0000
0000
3800
6800
6000
6e00
7700
6300
6300
6300
6300
6300
6300
0000
0000
ENDCHAR
STARTCHAR ch-23
ENCODING 23
SWIDTH 600 0
DWIDTH 9 0
BBX 9 15 0 -2
BITMAP
0000
0000
3800
6800
6000
6e00
7700
6300
6300
6300
6300
6300
6b00
0e00
0000
ENDCHAR
STARTCHAR ch-24
ENCODING 24
SWIDTH 600 0
DWIDTH 9 0
BBX 9 15 0 -2
BITMAP
0000
0000
0c00
0c00
0000
7c00
0c00
0c00
0c00
3e00
0c00
0c00
0c00
0000
0000
ENDCHAR
STARTCHAR ch-25
ENCODING 25
SWIDTH 600 0
DWIDTH 9 0
BBX 9 15 0 -2
BITMAP
0000
0000
0000
0000
0000
7800
1800
1800
1800
1800
1800
1900
0e00
0000
0000
ENDCHAR
STARTCHAR ch-26
ENCODING 26
SWIDTH 600 0
DWIDTH 9 0
BBX 9 15 0 -2
BITMAP
0000
0000
0000
0000
0000
7e00
1800
1800
1800
1800
1800
1800
7e00
0000
0000
ENDCHAR
STARTCHAR ch-27
ENCODING 27
SWIDTH 600 0
DWIDTH 9 0
BBX 9 15 0 -2
BITMAP
0000
0000
f800
1800
1800
1800
7900
bd00
9e00
1800
1800
1800
1800
0000
0000
ENDCHAR
STARTCHAR ch-28
ENCODING 28
SWIDTH 600 0
DWIDTH 9 0
BBX 9 15 0 -2
BITMAP
0000
0000
7c00
0c00
0c00
0c00
3c00
6c00
3f00
0c00
0c00
0c00
0c00
0000
0000
ENDCHAR
STARTCHAR ch-29
ENCODING 29
SWIDTH 600 0
DWIDTH 9 0
BBX 9 15 0 -2
BITMAP
0000
0000
7c00
0c00
0c00
0c00
0c00
0c00
0c00
0c00
0c00
0c00
0d00
0700
0000
ENDCHAR
STARTCHAR ch-30
ENCODING 30
SWIDTH 600 0
DWIDTH 9 0
BBX 9 15 0 -2
BITMAP
0000
0000
6000
6000
6000
6e00
7700
6300
6300
6300
6e00
6600
6300
0300
1e00
ENDCHAR
STARTCHAR ch-31
ENCODING 31
SWIDTH 600 0
DWIDTH 9 0
BBX 9 15 0 -2
BITMAP
0000
0000
0000
0000
0000
db00
db00
db00
db00
db00
db00
db00
6d00
0000
0000
ENDCHAR
STARTCHAR ch-32
ENCODING 32
SWIDTH 600 0
DWIDTH 9 0
BBX 9 15 0 -2
BITMAP
0000
0000
db00
db00
db00
db00
db00
db00
db00
6f00
0300
0300
0300
0000
0000
ENDCHAR
STARTCHAR ch-33
ENCODING 33
SWIDTH 600 0
DWIDTH 9 0
BBX 9 15 0 -2
BITMAP
0000
0000
0000
0000
0000
b600
db00
db00
db00
db00
db00
c300
cb00
0e00
0000
ENDCHAR
STARTCHAR ch-34
ENCODING 34
SWIDTH 666 0
DWIDTH 10 0
BBX 10 15 0 -2
BITMAP
0000
0000
0000
0000
0000
3700
3b80
3180
3180
3180
3180
3180
b180
e000
0000
ENDCHAR
STARTCHAR ch-35
ENCODING 35
SWIDTH 666 0
DWIDTH 10 0
BBX 10 15 0 -2
BITMAP
0000
0000
0000
0000
0000
dc00
ee00
c600
c600
c600
c600
c600
c680
0380
0000
ENDCHAR
STARTCHAR ch-36
ENCODING 36
SWIDTH 600 0
DWIDTH 9 0
BBX 9 15 0 -2
BITMAP
0000
0000
0000
0000
0000
6100
7100
7900
5d00
4f00
4700
4300
4100
0000
0000
ENDCHAR
STARTCHAR ch-37
ENCODING 37
SWIDTH 600 0
DWIDTH 9 0
BBX 9 15 0 -2
BITMAP
0000
0000
0000
0000
0000
1c00
3600
6300
7f00
6300
6300
3600
1c00
0000
0000
ENDCHAR
STARTCHAR ch-38
ENCODING 38
SWIDTH 600 0
DWIDTH 9 0
BBX 9 15 0 -2
BITMAP
0000
0000
0000
0000
0000
3f00
6c00
cc00
ce00
cc00
cc00
6c00
3f00
0000
0000
ENDCHAR
STARTCHAR ch-39
ENCODING 39
SWIDTH 600 0
DWIDTH 9 0
BBX 9 15 0 -2
BITMAP
0000
0000
0000
0000
0000
7e00
e700
c300
db00
db00
db00
db00
7600
0000
0000
ENDCHAR
STARTCHAR ch-40
ENCODING 40
SWIDTH 600 0
DWIDTH 9 0
BBX 9 15 0 -2
BITMAP
0000
0000
0000
1800
1800
3c00
5a00
db00
db00
db00
db00
5a00
3c00
1800
1800
ENDCHAR
STARTCHAR ch-41
ENCODING 41
SWIDTH 600 0
DWIDTH 9 0
BBX 9 15 0 -2
BITMAP
0000
0000
0000
0000
0000
0300
0300
0300
0300
0300
2700
3b00
3300
0000
0000
ENDCHAR
STARTCHAR ch-42
ENCODING 42
SWIDTH 600 0
DWIDTH 9 0
BBX 9 15 0 -2
BITMAP
0000
0000
0000
0300
0300
0300
0300
0300
0300
0300
2700
3b00
3300
0000
0000
ENDCHAR
STARTCHAR ch-43
ENCODING 43
SWIDTH 600 0
DWIDTH 9 0
BBX 9 15 0 -2
BITMAP
0000
0000
0000
0000
0c00
0c00
0c00
0c00
0c00
9c00
ec00
cd00
0700
0000
0000
ENDCHAR
STARTCHAR ch-44
ENCODING 44
SWIDTH 600 0
DWIDTH 9 0
BBX 9 15 0 -2
BITMAP
0000
0000
0000
3300
3700
3900
3000
3000
3000
3000
3000
3000
3000
0000
0000
ENDCHAR
STARTCHAR ch-45
ENCODING 45
SWIDTH 600 0
DWIDTH 9 0
BBX 9 15 0 -2
BITMAP
0000
0000
0000
0000
0000
3300
3700
3900
3000
3000
3000
3000
3400
1c00
0000
ENDCHAR
STARTCHAR ch-46
ENCODING 46
SWIDTH 600 0
DWIDTH 9 0
BBX 9 15 0 -2
BITMAP
0000
0000
0000
0000
0000
0f00
1b00
3100
3000
3000
3000
3000
3000
0000
0000
ENDCHAR
STARTCHAR ch-47
ENCODING 47
SWIDTH 600 0
DWIDTH 9 0
BBX 9 15 0 -2
BITMAP
0000
0000
0000
0000
0000
3c00
3600
2300
0300
0300
0300
0300
0300
0000
0000
ENDCHAR
STARTCHAR ch-48
ENCODING 48
SWIDTH 600 0
DWIDTH 9 0
BBX 9 15 0 -2
BITMAP
0000
0000
0000
0000
0000
7c00
6600
6600
6400
7800
6c00
6600
6300
0000
0000
ENDCHAR
STARTCHAR ch-49
ENCODING 49
SWIDTH 600 0
DWIDTH 9 0
BBX 9 15 0 -2
BITMAP
0000
0000
0000
0000
0000
6300
6600
6c00
7800
6400
6600
6600
7c00
0000
0000
ENDCHAR
STARTCHAR ch-50
ENCODING 50
SWIDTH 600 0
DWIDTH 9 0
BBX 9 15 0 -2
BITMAP
0000
0000
0000
0000
0000
3e00
6100
6000
7c00
1f00
0300
4300
7e00
2c00
1800
ENDCHAR
STARTCHAR ch-51
ENCODING 51
SWIDTH 600 0
DWIDTH 9 0
BBX 9 15 0 -2
BITMAP
0000
0000
0000
0e00
1b00
1800
1800
1800
1800
1800
1800
d800
7000
0000
0000
ENDCHAR
STARTCHAR ch-52
ENCODING 52
SWIDTH 600 0
DWIDTH 9 0
BBX 9 15 0 -2
BITMAP
0000
0000
0000
0e00
1b00
1800
7e00
1800
1800
7e00
1800
d800
7000
0000
0000
ENDCHAR
STARTCHAR ch-53
ENCODING 53
SWIDTH 600 0
DWIDTH 9 0
BBX 9 15 0 -2
BITMAP
0000
0000
0000
7000
d800
1800
1800
1800
1800
1800
1800
1b00
0e00
0000
0000
ENDCHAR
STARTCHAR ch-54
ENCODING 54
SWIDTH 600 0
DWIDTH 9 0
BBX 9 15 0 -2
BITMAP
0000
0000
0000
0e00
1b00
1800
1800
1800
1800
1800
7800
d800
7600
0000
0000
ENDCHAR
STARTCHAR ch-55
ENCODING 55
SWIDTH 600 0
DWIDTH 9 0
BBX 9 15 0 -2
BITMAP
0000
0000
0000
7800
0c00
0c00
0c00
0c00
0c00
7f00
0c00
0c00
0c00
0000
0000
ENDCHAR
STARTCHAR ch-56
ENCODING 56
SWIDTH 600 0
DWIDTH 9 0
BBX 9 15 0 -2
BITMAP
0000
0000
0000
1800
1800
1800
7f00
1800
1800
1800
1b00
1b00
0e00
0000
0000
ENDCHAR
STARTCHAR ch-57
ENCODING 57
SWIDTH 666 0
DWIDTH 10 0
BBX 10 15 0 -2
BITMAP
0000
0000
0000
0000
0000
6300
6300
ff80
6300
6300
6300
6700
3b00
0000
0000
ENDCHAR
STARTCHAR ch-58
ENCODING 58
SWIDTH 600 0
DWIDTH 9 0
BBX 9 15 0 -2
BITMAP
0000
0000
0000
0000
0000
e700
6600
c300
c300
c300
c300
6600
3c00
0000
0000
ENDCHAR
STARTCHAR ch-59
ENCODING 59
SWIDTH 600 0
DWIDTH 9 0
BBX 9 15 0 -2
BITMAP
0000
0000
0000
0000
0000
6600
6300
6300
6300
6300
6300
7600
3800
0000
0000
ENDCHAR
STARTCHAR ch-60
ENCODING 60
SWIDTH 600 0
DWIDTH 9 0
BBX 9 15 0 -2
BITMAP
0000
0000
0000
0000
0000
0c00
1c00
1600
3600
3600
6300
6300
6300
0000
0000
ENDCHAR
STARTCHAR ch-61
ENCODING 61
SWIDTH 600 0
DWIDTH 9 0
BBX 9 15 0 -2
BITMAP
0000
0000
0000
0000
0000
6600
6600
6600
bb00
bb00
9300
8300
8300
0000
0000
ENDCHAR
STARTCHAR ch-62
ENCODING 62
SWIDTH 600 0
DWIDTH 9 0
BBX 9 15 0 -2
BITMAP
0000
0000
0000
0600
0600
0c00
0c00
1c00
3600
3600
6300
6300
6300
0000
0000
ENDCHAR
STARTCHAR ch-63
ENCODING 63
SWIDTH 600 0
DWIDTH 9 0
BBX 9 15 0 -2
BITMAP
0000
0000
0000
0000
0000
c300
c300
6600
3400
1800
1800
1800
1800
0000
0000
ENDCHAR
STARTCHAR ch-64
ENCODING 64
SWIDTH 600 0
DWIDTH 9 0
BBX 9 15 0 -2
BITMAP
0000
0000
0000
0000
0000
fe00
0600
0c00
1800
3000
6000
c000
f900
0e00
0000
ENDCHAR
STARTCHAR ch-65
ENCODING 65
SWIDTH 600 0
DWIDTH 9 0
BBX 9 15 0 -2
BITMAP
0000
0000
0000
0000
0000
fe00
0600
0c00
1800
3000
6e00
db00
fe00
3000
0000
ENDCHAR
STARTCHAR ch-66
ENCODING 66
SWIDTH 600 0
DWIDTH 9 0
BBX 9 15 0 -2
BITMAP
0000
0000
0000
0000
0000
3f00
6300
0600
0c00
1600
0300
0300
6700
3e00
0000
ENDCHAR
STARTCHAR ch-67
ENCODING 67
SWIDTH 600 0
DWIDTH 9 0
BBX 9 15 0 -2
BITMAP
0000
0000
0000
0000
0000
3f00
6300
0600
0c00
1600
0300
3b00
6f00
3e00
0300
ENDCHAR
STARTCHAR ch-68
ENCODING 68
SWIDTH 600 0
DWIDTH 9 0
BBX 9 15 0 -2
BITMAP
0000
0000
0000
3c00
6600
0600
0600
0600
1c00
3000
3000
3000
3000
0000
0000
ENDCHAR
STARTCHAR ch-69
ENCODING 69
SWIDTH 600 0
DWIDTH 9 0
BBX 9 15 0 -2
BITMAP
0000
0000
0000
3c00
6600
6000
6000
6000
3800
0c00
0c00
0c00
0c00
0000
0000
ENDCHAR
STARTCHAR ch-70
ENCODING 70
SWIDTH 600 0
DWIDTH 9 0
BBX 9 15 0 -2
BITMAP
0000
0000
0000
0c00
0c00
0c00
0c00
3800
6000
6000
6000
6600
3c00
0000
0000
ENDCHAR
STARTCHAR ch-71
ENCODING 71
SWIDTH 600 0
DWIDTH 9 0
BBX 9 15 0 -2
BITMAP
0000
1c00
3600
6000
6000
6000
6000
6000
6000
6000
6000
3600
1c00
0000
0000
ENDCHAR
STARTCHAR ch-72
ENCODING 72
SWIDTH 600 0
DWIDTH 9 0
BBX 9 15 0 -2
BITMAP
0000
0000
0000
3c00
6600
c300
c300
db00
db00
c300
c300
6600
3c00
0000
0000
ENDCHAR
STARTCHAR ch-73
ENCODING 73
SWIDTH 600 0
DWIDTH 9 0
BBX 9 15 0 -2
BITMAP
0000
0000
0000
0000
0000
7c00
6600
6400
7800
6400
6600
6600
7c00
0000
0000
ENDCHAR
STARTCHAR ch-74
ENCODING 74
SWIDTH 600 0
DWIDTH 9 0
BBX 9 15 0 -2
BITMAP
0000
0000
0000
0000
0000
3e00
6300
6100
3d00
6100
6100
6300
3e00
0000
0000
ENDCHAR
STARTCHAR ch-75
ENCODING 75
SWIDTH 600 0
DWIDTH 9 0
BBX 9 15 0 -2
BITMAP
0000
0000
0000
0300
0700
3c00
6600
c000
c000
c600
c600
6600
3e00
0000
0000
ENDCHAR
STARTCHAR ch-76
ENCODING 76
SWIDTH 600 0
DWIDTH 9 0
BBX 9 15 0 -2
BITMAP
0000
0000
0000
0000
0000
6300
6300
6300
7f00
6300
6300
6300
6300
0000
0000
ENDCHAR
STARTCHAR ch-77
ENCODING 77
SWIDTH 600 0
DWIDTH 9 0
BBX 9 15 0 -2
BITMAP
0000
0000
0600
0600
0000
3e00
0600
0600
0600
0600
0600
3f00
6600
6600
3c00
ENDCHAR
STARTCHAR ch-78
ENCODING 78
SWIDTH 600 0
DWIDTH 9 0
BBX 9 15 0 -2
BITMAP
0000
0000
e300
6300
3300
1b00
0f00
1300
2300
6300
0300
0300
0300
0000
0000
ENDCHAR
STARTCHAR ch-79
ENCODING 79
SWIDTH 600 0
DWIDTH 9 0
BBX 9 15 0 -2
BITMAP
0000
0000
0000
0000
0000
6000
6000
6000
6000
6000
6000
6000
7e00
0000
0000
ENDCHAR
STARTCHAR ch-80
ENCODING 80
SWIDTH 666 0
DWIDTH 10 0
BBX 10 15 0 -2
BITMAP
0000
0000
0000
0180
0380
3a00
6600
c600
c600
c600
c600
6e00
3600
0600
0600
ENDCHAR
STARTCHAR ch-81
ENCODING 81
SWIDTH 600 0
DWIDTH 9 0
BBX 9 15 0 -2
BITMAP
0000
0000
0000
3c00
6600
0600
0600
0600
1c00
3000
fc00
3000
3000
0000
0000
ENDCHAR
STARTCHAR ch-82
ENCODING 82
SWIDTH 600 0
DWIDTH 9 0
BBX 9 15 0 -2
BITMAP
0000
0000
0000
3c00
6600
6000
6000
6000
3800
0c00
3f00
0c00
0c00
0000
0000
ENDCHAR
STARTCHAR ch-83
ENCODING 83
SWIDTH 733 0
DWIDTH 11 0
BBX 11 15 0 -2
BITMAP
0000
0000
0c00
0c00
0c00
3fc0
6cc0
cd80
cf00
ce00
cc00
6c00
3fc0
0000
0000
ENDCHAR
STARTCHAR ch-84
ENCODING 84
SWIDTH 800 0
DWIDTH 12 0
BBX 12 15 0 -2
BITMAP
0000
0000
0c00
0c00
0c00
3fe0
6c60
ccc0
cd80
cec0
cc60
6c60
3ce0
07c0
0000
ENDCHAR
STARTCHAR ch-85
ENCODING 85
SWIDTH 800 0
DWIDTH 12 0
BBX 12 15 0 -2
BITMAP
0000
0000
0c00
0c00
0c00
3fc0
6cc0
cd80
cf00
ce00
cdc0
6f60
3fc0
0600
0000
ENDCHAR
STARTCHAR ch-86
ENCODING 86
SWIDTH 800 0
DWIDTH 12 0
BBX 12 15 0 -2
BITMAP
0000
0000
0000
3000
3000
37c0
fc20
3c00
3f80
33e0
3060
3060
1fc0
0000
0000
ENDCHAR
STARTCHAR ch-87
ENCODING 87
SWIDTH 733 0
DWIDTH 11 0
BBX 11 15 0 -2
BITMAP
0000
0000
0000
3380
36c0
3600
fe00
3600
3600
3600
3600
3600
3600
1c00
0000
ENDCHAR
STARTCHAR ch-88
ENCODING 88
SWIDTH 866 0
DWIDTH 13 0
BBX 13 15 0 -2
BITMAP
0000
0000
0000
3000
3000
31e0
ff10
3600
3600
3600
36e0
33b0
1fe0
0300
0000
ENDCHAR
STARTCHAR ch-96
ENCODING 96
SWIDTH 466 0
DWIDTH 7 0
BBX 7 15 0 -2
BITMAP
0000
6000
6000
6000
7800
6c00
6c00
6c00
0000
0000
0000
0000
0000
0000
0000
ENDCHAR
STARTCHAR ch-97
ENCODING 97
SWIDTH 466 0
DWIDTH 7 0
BBX 7 15 0 -2
BITMAP
0000
3800
6800
6000
7800
6c00
6c00
6c00
0000
0000
0000
0000
0000
0000
0000
ENDCHAR
STARTCHAR ch-98
ENCODING 98
SWIDTH 466 0
DWIDTH 7 0
BBX 7 15 0 -2
BITMAP
0c00
0000
3c00
0c00
0c00
0c00
0c00
7800
0000
0000
0000
0000
0000
0000
0000
ENDCHAR
STARTCHAR ch-99
ENCODING 99
SWIDTH 466 0
DWIDTH 7 0
BBX 7 15 0 -2
BITMAP
0000
6c00
7c00
6400
6000
6000
6000
6000
0000
0000
0000
0000
0000
0000
0000
ENDCHAR
STARTCHAR ch-100
ENCODING 100
SWIDTH 466 0
DWIDTH 7 0
BBX 7 15 0 -2
BITMAP
0000
0c00
0c00
0c00
0c00
4c00
7c00
6c00
0000
0000
0000
0000
0000
0000
0000
ENDCHAR
STARTCHAR ch-101
ENCODING 101
SWIDTH 466 0
DWIDTH 7 0
BBX 7 15 0 -2
BITMAP
0000
1800
1800
1800
1800
9800
f800
d800
0800
0c00
0000
0000
0000
0000
0000
ENDCHAR
STARTCHAR ch-102
ENCODING 102
SWIDTH 466 0
DWIDTH 7 0
BBX 7 15 0 -2
BITMAP
0000
cc00
d800
f000
f000
d800
d800
f000
0000
0000
0000
0000
0000
0000
0000
ENDCHAR
STARTCHAR ch-103
ENCODING 103
SWIDTH 466 0
DWIDTH 7 0
BBX 7 15 0 -2
BITMAP
0000
c400
c400
d400
d400
fc00
6800
6800
0000
0000
0000
0000
0000
0000
0000
ENDCHAR
STARTCHAR ch-104
ENCODING 104
SWIDTH 466 0
DWIDTH 7 0
BBX 7 15 0 -2
BITMAP
0000
cc00
cc00
ec00
7800
3000
3000
6000
6000
0000
0000
0000
0000
0000
0000
ENDCHAR
STARTCHAR ch-105
ENCODING 105
SWIDTH 466 0
DWIDTH 7 0
BBX 7 15 0 -2
BITMAP
0000
1800
3000
6000
0000
0000
0000
0000
0000
0000
0000
0000
0000
0000
0000
ENDCHAR
STARTCHAR ch-106
ENCODING 106
SWIDTH 533 0
DWIDTH 8 0
BBX 8 15 0 -2
BITMAP
0000
3600
6c00
d800
0000
0000
0000
0000
0000
0000
0000
0000
0000
0000
0000
ENDCHAR
STARTCHAR ch-107
ENCODING 107
SWIDTH 466 0
DWIDTH 7 0
BBX 7 15 0 -2
BITMAP
0000
1800
2000
3800
3800
0000
0000
0000
0000
0000
0000
0000
0000
0000
0000
ENDCHAR
STARTCHAR ch-108
ENCODING 108
SWIDTH 466 0
DWIDTH 7 0
BBX 7 15 0 -2
BITMAP
0000
3800
3800
0800
3000
0000
0000
0000
0000
0000
0000
0000
0000
0000
0000
ENDCHAR
STARTCHAR ch-109
ENCODING 109
SWIDTH 466 0
DWIDTH 7 0
BBX 7 15 0 -2
BITMAP
0000
3800
3800
2000
1800
0000
0000
0000
0000
0000
0000
0000
0000
0000
0000
ENDCHAR
STARTCHAR ch-110
ENCODING 110
SWIDTH 466 0
DWIDTH 7 0
BBX 7 15 0 -2
BITMAP
0000
3800
0c00
0c00
3800
0000
0000
0000
0000
0000
0000
0000
0000
0000
0000
ENDCHAR
STARTCHAR ch-111
ENCODING 111
SWIDTH 600 0
DWIDTH 9 0
BBX 7 15 0 -2
BITMAP
0000
3800
6000
6000
3800
0000
0000
0000
0000
0000
0000
0000
0000
0000
0000
ENDCHAR
STARTCHAR ch-112
ENCODING 112
SWIDTH 466 0
DWIDTH 7 0
BBX 7 15 0 -2
BITMAP
0000
3800
6c00
0c00
1800
3000
3000
3000
0000
0000
0000
0000
0000
0000
0000
ENDCHAR
STARTCHAR ch-113
ENCODING 113
SWIDTH 466 0
DWIDTH 7 0
BBX 7 15 0 -2
BITMAP
0000
3800
6c00
6000
3000
1800
1800
1800
0000
0000
0000
0000
0000
0000
0000
ENDCHAR
STARTCHAR ch-114
ENCODING 114
SWIDTH 466 0
DWIDTH 7 0
BBX 7 15 0 -2
BITMAP
0000
1800
3000
6000
3000
1800
0000
0000
0000
0000
0000
0000
0000
0000
0000
ENDCHAR
STARTCHAR ch-115
ENCODING 115
SWIDTH 466 0
DWIDTH 7 0
BBX 7 15 0 -2
BITMAP
0000
6000
3000
1800
3000
6000
0000
0000
0000
0000
0000
0000
0000
0000
0000
ENDCHAR
STARTCHAR ch-116
ENCODING 116
SWIDTH 466 0
DWIDTH 7 0
BBX 7 15 0 -2
BITMAP
0000
1000
3800
6c00
4400
0000
0000
0000
0000
0000
0000
0000
0000
0000
0000
ENDCHAR
STARTCHAR ch-117
ENCODING 117
SWIDTH 466 0
DWIDTH 7 0
BBX 7 15 0 -2
BITMAP
0000
4400
6c00
3800
1000
0000
0000
0000
0000
0000
0000
0000
0000
0000
0000
ENDCHAR
STARTCHAR ch-118
ENCODING 118
SWIDTH 466 0
DWIDTH 7 0
BBX 7 15 0 -2
BITMAP
0000
1000
3800
2800
0000
0000
0000
0000
0000
0000
0000
0000
0000
0000
0000
ENDCHAR
STARTCHAR ch-119
ENCODING 119
SWIDTH 466 0
DWIDTH 7 0
BBX 7 15 0 -2
BITMAP
0000
2800
3800
1000
0000
0000
0000
0000
0000
0000
0000
0000
0000
0000
0000
ENDCHAR
STARTCHAR ch-120
ENCODING 120
SWIDTH 466 0
DWIDTH 7 0
BBX 7 15 0 -2
BITMAP
0000
3000
3000
3000
3000
3000
0000
0000
0000
0000
0000
0000
0000
0000
0000
ENDCHAR
STARTCHAR ch-121
ENCODING 121
SWIDTH 466 0
DWIDTH 7 0
BBX 7 15 0 -2
BITMAP
0000
0000
7800
0000
0000
0000
0000
0000
0000
0000
0000
0000
0000
0000
0000
ENDCHAR
STARTCHAR ch-122
ENCODING 122
SWIDTH 466 0
DWIDTH 7 0
BBX 7 15 0 -2
BITMAP
0000
1800
6000
0000
0000
0000
0000
0000
0000
0000
0000
0000
0000
0000
0000
ENDCHAR
STARTCHAR ch-123
ENCODING 123
SWIDTH 466 0
DWIDTH 7 0
BBX 7 15 0 -2
BITMAP
0000
6000
1800
0000
0000
0000
0000
0000
0000
0000
0000
0000
0000
0000
0000
ENDCHAR
STARTCHAR ch-124
ENCODING 124
SWIDTH 466 0
DWIDTH 7 0
BBX 7 15 0 -2
BITMAP
0000
0000
0000
0000
0000
0000
0000
0000
0000
3000
3000
3000
3000
3000
0000
ENDCHAR
STARTCHAR ch-125
ENCODING 125
SWIDTH 466 0
DWIDTH 7 0
BBX 7 15 0 -2
BITMAP
0000
0000
0000
0000
0000
0000
0000
0000
0000
0000
0000
0000
7800
0000
0000
ENDCHAR
STARTCHAR ch-126
ENCODING 126
SWIDTH 466 0
DWIDTH 7 0
BBX 7 15 0 -2
BITMAP
0000
0000
0000
0000
0000
0000
0000
0000
0000
0000
0000
6000
1800
0000
0000
ENDCHAR
STARTCHAR ch-127
ENCODING 127
SWIDTH 466 0
DWIDTH 7 0
BBX 7 15 0 -2
BITMAP
0000
0000
0000
0000
0000
0000
0000
0000
0000
0000
0000
1800
6000
0000
0000
ENDCHAR
STARTCHAR ch-128
ENCODING 128
SWIDTH 466 0
DWIDTH 7 0
BBX 7 15 0 -2
BITMAP
0000
0000
0000
0000
0000
0000
3800
1000
0000
0000
0000
1000
3800
0000
0000
ENDCHAR
STARTCHAR ch-129
ENCODING 129
SWIDTH 466 0
DWIDTH 7 0
BBX 7 15 0 -2
BITMAP
0000
0000
0000
0000
0000
0000
3800
1000
0000
0000
0000
0000
0000
0000
0000
ENDCHAR
STARTCHAR ch-130
ENCODING 130
SWIDTH 466 0
DWIDTH 7 0
BBX 7 15 0 -2
BITMAP
0000
0000
0000
0000
0000
0000
3800
0c00
0c00
3800
0000
0000
0000
0000
0000
ENDCHAR
STARTCHAR ch-131
ENCODING 131
SWIDTH 466 0
DWIDTH 7 0
BBX 7 15 0 -2
BITMAP
0000
0000
0000
0000
0000
0000
1c00
3000
3000
1c00
0000
0000
0000
0000
0000
ENDCHAR
STARTCHAR ch-132
ENCODING 132
SWIDTH 466 0
DWIDTH 7 0
BBX 7 15 0 -2
BITMAP
0000
0000
0000
0000
0000
0000
0000
1000
1000
1000
7c00
0000
0000
0000
0000
ENDCHAR
STARTCHAR ch-133
ENCODING 133
SWIDTH 466 0
DWIDTH 7 0
BBX 7 15 0 -2
BITMAP
0000
0000
0000
0000
0000
0000
7c00
1000
1000
1000
0000
0000
0000
0000
0000
ENDCHAR
STARTCHAR ch-134
ENCODING 134
SWIDTH 466 0
DWIDTH 7 0
BBX 7 15 0 -2
BITMAP
0000
0000
0000
0000
0000
0000
1000
1000
7c00
1000
1000
0000
0000
0000
0000
ENDCHAR
STARTCHAR ch-135
ENCODING 135
SWIDTH 466 0
DWIDTH 7 0
BBX 7 15 0 -2
BITMAP
0000
0000
0000
0000
0000
0000
0000
4400
7c00
4400
0000
0000
0000
0000
0000
ENDCHAR
STARTCHAR ch-136
ENCODING 136
SWIDTH 600 0
DWIDTH 9 0
BBX 9 15 0 -2
BITMAP
0000
6300
3e00
0000
0000
0000
0000
0000
0000
0000
0000
0000
0000
0000
0000
ENDCHAR
STARTCHAR ch-137
ENCODING 137
SWIDTH 600 0
DWIDTH 9 0
BBX 9 15 0 -2
BITMAP
0000
1800
0000
0000
0000
0000
0000
0000
0000
0000
0000
0000
0000
0000
0000
ENDCHAR
STARTCHAR ch-138
ENCODING 138
SWIDTH 600 0
DWIDTH 9 0
BBX 9 15 0 -2
BITMAP
1800
2400
2400
1800
0000
0000
0000
0000
0000
0000
0000
0000
0000
0000
0000
ENDCHAR
STARTCHAR ch-139
ENCODING 139
SWIDTH 600 0
DWIDTH 9 0
BBX 9 15 0 -2
BITMAP
0000
0000
0000
0000
0000
0000
0000
0000
0000
0000
0000
0000
0000
2000
1800
ENDCHAR
STARTCHAR ch-140
ENCODING 140
SWIDTH 600 0
DWIDTH 9 0
BBX 9 15 0 -2
BITMAP
0000
3a00
5c00
0000
0000
0000
0000
0000
0000
0000
0000
0000
0000
0000
0000
ENDCHAR
STARTCHAR ch-141
ENCODING 141
SWIDTH 666 0
DWIDTH 10 0
BBX 10 15 0 -2
BITMAP
0000
3180
c600
0000
0000
0000
0000
0000
0000
0000
0000
0000
0000
0000
0000
ENDCHAR
STARTCHAR ch-142
ENCODING 142
SWIDTH 466 0
DWIDTH 7 0
BBX 7 15 0 -2
BITMAP
0000
0000
0000
0000
0000
1000
3000
0800
0000
0000
0000
0000
0000
0000
0000
ENDCHAR
STARTCHAR ch-144
ENCODING 144
SWIDTH 466 0
DWIDTH 7 0
BBX 7 15 0 -2
BITMAP
0000
0000
4400
6c00
6c00
3800
6c00
3800
0000
0000
0000
0000
0000
0000
0000
ENDCHAR
STARTCHAR ch-145
ENCODING 145
SWIDTH 466 0
DWIDTH 7 0
BBX 7 15 0 -2
BITMAP
0000
7800
1800
1800
1800
1800
1800
1800
0000
0000
0000
0000
0000
0000
0000
ENDCHAR
STARTCHAR ch-146
ENCODING 146
SWIDTH 466 0
DWIDTH 7 0
BBX 7 15 0 -2
BITMAP
0000
0000
3c00
6000
7800
3c00
0c00
7800
0000
0000
0000
0000
0000
0000
0000
ENDCHAR
STARTCHAR ch-147
ENCODING 147
SWIDTH 466 0
DWIDTH 7 0
BBX 7 15 0 -2
BITMAP
0000
0000
4400
6c00
3800
3800
6c00
4400
0000
0000
0000
0000
0000
0000
0000
ENDCHAR
STARTCHAR ch-148
ENCODING 148
SWIDTH 466 0
DWIDTH 7 0
BBX 7 15 0 -2
BITMAP
0000
0000
3800
6c00
7000
3800
1800
1800
0000
0000
0000
0000
0000
0000
0000
ENDCHAR
STARTCHAR ch-149
ENCODING 149
SWIDTH 466 0
DWIDTH 7 0
BBX 7 15 0 -2
BITMAP
0000
0000
7c00
0c00
0c00
0c00
0c00
0c00
0c00
0c00
0c00
0000
0000
0000
0000
ENDCHAR
STARTCHAR ch-150
ENCODING 150
SWIDTH 466 0
DWIDTH 7 0
BBX 7 15 0 -2
BITMAP
0000
0000
0c00
0c00
7c00
0c00
0c00
0c00
0c00
0c00
0c00
0000
0000
0000
0000
ENDCHAR
STARTCHAR ch-151
ENCODING 151
SWIDTH 466 0
DWIDTH 7 0
BBX 7 15 0 -2
BITMAP
0000
0000
0c00
0c00
0c00
0c00
7c00
0c00
0c00
0c00
0c00
0000
0000
0000
0000
ENDCHAR
STARTCHAR ch-152
ENCODING 152
SWIDTH 466 0
DWIDTH 7 0
BBX 7 15 0 -2
BITMAP
0000
0000
0c00
0c00
0c00
0c00
0c00
0c00
7c00
0c00
0c00
0000
0000
0000
0000
ENDCHAR
STARTCHAR ch-153
ENCODING 153
SWIDTH 466 0
DWIDTH 7 0
BBX 7 15 0 -2
BITMAP
0000
0000
0c00
0c00
0c00
0c00
0c00
0c00
0c00
0c00
7c00
0000
0000
0000
0000
ENDCHAR
ENDFONT
